<?xml version="1.0" standalone="no"?>
<!DOCTYPE svg PUBLIC "-//W3C//DTD SVG 20010904//EN"
 "http://www.w3.org/TR/2001/REC-SVG-20010904/DTD/svg10.dtd">
<svg version="1.0" xmlns="http://www.w3.org/2000/svg"
 width="1021.000000pt" height="1004.000000pt" viewBox="0 0 1021.000000 1004.000000"
 preserveAspectRatio="xMidYMid meet">

<g transform="translate(0.000000,1004.000000) scale(0.100000,-0.100000)"
fill="#000000" stroke="none">
<path d="M279 10022 c5 -9 42 -54 83 -98 40 -44 127 -143 193 -219 66 -77 147
-169 180 -205 67 -74 138 -156 235 -271 36 -42 110 -130 165 -194 55 -65 119
-141 142 -169 24 -28 76 -90 115 -138 40 -47 96 -114 123 -148 53 -65 279
-337 380 -458 65 -77 112 -135 295 -361 129 -160 300 -350 468 -520 80 -82
140 -151 138 -158 -3 -7 -1 -13 4 -13 6 0 10 4 10 9 0 16 44 17 61 1 9 -8 37
-32 63 -54 26 -21 46 -40 43 -42 -2 -2 -30 10 -61 27 -51 28 -58 29 -54 13 2
-13 23 -26 66 -41 35 -13 60 -18 57 -13 -9 14 2 12 38 -7 18 -10 48 -18 67
-18 39 -1 133 -25 126 -32 -2 -2 -22 1 -44 8 -22 6 -48 9 -57 5 -15 -5 -13
-10 11 -29 16 -12 32 -21 37 -19 4 1 17 -2 28 -8 16 -9 141 -39 229 -56 286
-54 469 -69 1017 -85 358 -10 992 -7 1273 6 52 3 216 10 363 15 l268 11 19
-23 c11 -13 32 -42 47 -65 15 -24 31 -43 36 -43 4 0 5 5 2 10 -3 6 -4 10 -2
10 5 0 41 -72 113 -230 26 -58 55 -118 65 -135 10 -16 34 -68 54 -115 20 -47
45 -104 56 -127 10 -24 19 -45 19 -47 0 -3 13 -33 29 -68 16 -35 52 -126 80
-203 28 -77 56 -151 61 -163 6 -13 20 -52 31 -85 23 -68 23 -71 -10 -262 -12
-66 -21 -130 -21 -142 0 -45 -16 -22 -42 59 -29 94 -19 88 -198 128 -47 10
-186 44 -310 75 -124 31 -252 63 -285 71 -33 8 -123 30 -200 49 -151 38 -164
41 -210 51 -16 3 -59 14 -95 24 -36 10 -101 28 -145 40 -44 12 -127 37 -184
56 -57 19 -110 34 -118 34 -8 0 -29 7 -46 15 -31 14 -195 69 -522 175 -88 29
-173 58 -190 66 -31 14 -261 94 -271 94 -3 0 47 -52 112 -115 65 -63 123 -115
128 -115 6 0 42 -15 81 -34 38 -19 111 -53 160 -77 178 -83 251 -119 285 -139
38 -22 109 -54 210 -95 36 -14 79 -32 95 -40 17 -7 41 -16 55 -20 14 -4 30
-11 35 -15 12 -10 191 -74 495 -177 25 -8 59 -21 76 -29 17 -7 68 -25 115 -39
46 -15 99 -33 117 -41 18 -8 39 -14 47 -14 9 0 34 -8 58 -19 23 -10 134 -48
247 -85 113 -37 223 -76 245 -87 41 -20 126 -47 180 -56 54 -10 55 -12 55
-194 0 -103 -4 -170 -10 -174 -6 -4 -59 19 -118 51 -59 31 -141 75 -182 97
-102 54 -88 48 -245 122 -77 37 -163 78 -190 91 -28 13 -56 24 -62 24 -7 0
-36 14 -65 31 -57 34 -138 72 -178 84 -27 9 -138 59 -242 110 -36 18 -77 36
-90 40 -13 4 -96 43 -186 86 -89 43 -166 79 -170 79 -4 0 -44 18 -87 39 -44
21 -82 38 -85 37 -3 0 -12 5 -20 12 -16 14 -97 63 -205 125 -38 22 -90 54
-115 72 -25 18 -94 58 -155 89 -125 65 -127 72 25 -88 41 -44 93 -98 115 -122
106 -112 161 -164 174 -164 8 0 11 -3 8 -6 -9 -9 18 -43 114 -144 45 -47 106
-112 138 -145 31 -33 90 -96 132 -140 42 -44 110 -122 152 -172 74 -89 157
-180 313 -345 40 -42 80 -89 88 -105 8 -15 31 -39 50 -53 19 -14 45 -41 58
-59 12 -19 52 -67 88 -107 108 -120 198 -227 226 -269 14 -22 46 -61 69 -86
23 -25 70 -83 105 -130 34 -46 72 -93 85 -104 12 -12 41 -55 65 -96 24 -40 61
-92 81 -115 20 -23 42 -52 49 -65 7 -13 32 -46 54 -74 23 -27 64 -83 91 -124
74 -109 77 -114 115 -161 44 -54 122 -178 157 -252 24 -49 31 -55 46 -46 24
13 35 2 16 -15 -8 -6 -33 -34 -54 -62 -22 -27 -45 -56 -52 -63 -7 -7 -13 -16
-12 -20 0 -4 29 -29 63 -56 l64 -49 -5 -171 c-3 -94 -7 -173 -9 -175 -1 -2
-38 32 -81 75 -64 65 -96 88 -177 128 -86 42 -101 47 -123 37 -14 -7 -27 -10
-28 -9 -1 2 -13 23 -26 48 -13 25 -43 74 -67 109 -24 35 -52 80 -62 100 -11
20 -47 74 -80 121 -33 47 -82 117 -107 155 -26 39 -71 100 -100 136 -29 36
-53 70 -53 74 0 5 -19 32 -42 62 -56 71 -171 225 -252 339 -36 50 -81 108
-101 130 -21 21 -48 57 -62 79 -25 39 -58 82 -235 304 -46 57 -100 127 -121
155 -21 28 -46 58 -56 66 -9 8 -45 54 -79 102 -35 48 -70 91 -78 96 -8 5 -28
27 -43 51 -15 23 -51 70 -80 104 -28 34 -85 105 -127 157 -41 52 -83 104 -92
115 -10 11 -34 40 -53 65 -18 24 -38 50 -44 56 -5 6 -37 46 -70 89 -33 43 -77
96 -98 119 -21 23 -65 75 -97 116 -31 42 -65 82 -75 90 -10 8 -41 46 -70 85
-29 38 -71 90 -95 115 -23 25 -69 79 -101 120 -33 41 -83 103 -112 136 -63 75
-150 180 -195 237 -18 23 -58 71 -87 107 -107 128 -191 231 -223 278 -80 111
-200 246 -337 377 -81 77 -173 171 -206 208 -32 38 -59 62 -59 54 0 -8 8 -25
19 -38 10 -13 30 -46 44 -74 14 -27 51 -81 84 -120 32 -38 66 -82 75 -96 9
-15 38 -51 65 -82 26 -30 75 -95 108 -143 65 -98 180 -260 260 -369 28 -38
109 -149 179 -245 71 -96 142 -191 158 -210 15 -19 45 -60 65 -90 20 -30 57
-80 83 -110 26 -30 62 -77 80 -105 18 -27 54 -75 80 -105 25 -30 68 -86 96
-124 27 -37 67 -91 90 -120 22 -28 51 -67 64 -86 13 -19 49 -66 80 -105 31
-38 71 -90 89 -115 98 -137 256 -342 280 -364 11 -11 21 -23 21 -29 0 -11 60
-94 115 -159 22 -26 60 -76 85 -112 25 -36 48 -65 53 -66 4 0 23 -24 43 -52
47 -72 78 -113 118 -162 18 -23 49 -66 69 -96 19 -30 44 -64 54 -75 21 -22
201 -259 273 -360 25 -34 63 -84 85 -111 22 -27 54 -69 70 -94 16 -25 43 -61
61 -81 17 -19 52 -67 77 -105 26 -38 61 -88 79 -111 141 -180 378 -518 417
-595 14 -26 13 -29 -29 -65 l-42 -38 118 -40 c66 -21 193 -67 284 -102 91 -36
181 -70 200 -78 l35 -13 3 -137 3 -137 -28 7 c-15 4 -39 9 -53 12 -14 2 -41 8
-60 13 -95 24 -122 30 -210 51 -117 26 -246 65 -283 85 -15 9 -35 14 -45 13
-9 -1 -25 1 -35 6 -9 4 -50 18 -90 30 -65 21 -72 26 -68 47 3 22 2 22 -16 5
-11 -9 -24 -17 -30 -17 -6 0 -46 39 -89 88 -42 48 -91 97 -108 109 -16 13 -44
39 -60 59 -17 20 -56 64 -86 96 -30 33 -72 85 -93 116 -21 32 -58 77 -81 102
-23 25 -58 65 -77 90 -18 25 -66 83 -104 130 -39 47 -82 101 -95 120 -13 19
-42 56 -66 81 -23 25 -53 63 -67 85 -13 21 -54 73 -91 114 -36 41 -66 79 -66
85 0 5 -19 30 -42 55 -23 25 -74 86 -113 136 -38 51 -97 126 -130 168 -77 97
-148 188 -268 340 -34 44 -75 98 -91 120 -16 23 -43 57 -60 77 -17 19 -64 78
-104 130 -40 52 -92 119 -117 149 -24 30 -44 58 -45 63 0 4 -23 35 -50 70 -89
111 -241 311 -280 367 -21 30 -48 64 -60 75 -12 11 -45 54 -73 95 -28 41 -68
98 -90 125 -102 131 -227 305 -279 387 -95 153 -91 158 -84 -102 6 -195 9
-227 24 -238 16 -12 16 -14 0 -26 -25 -18 -24 -110 0 -156 20 -40 104 -148
177 -229 28 -31 61 -72 74 -91 14 -19 45 -58 70 -85 25 -28 102 -117 171 -200
69 -82 146 -172 171 -200 26 -27 68 -78 95 -112 59 -75 180 -224 289 -355 44
-53 112 -135 150 -183 68 -85 137 -169 260 -315 33 -40 64 -79 69 -88 5 -10
37 -48 70 -87 34 -38 79 -92 100 -120 21 -27 46 -57 55 -65 25 -23 166 -203
181 -230 16 -29 -177 164 -305 306 -77 85 -310 320 -455 458 -63 60 -191 194
-370 386 -84 91 -195 206 -245 255 -353 346 -549 531 -570 538 l-24 8 2 262
c1 144 -1 269 -5 277 -3 8 -9 25 -13 38 -4 12 -12 22 -17 22 -6 0 -8 7 -4 15
3 8 1 15 -4 15 -5 0 -7 9 -5 19 2 11 -3 22 -10 25 -8 3 -19 24 -25 48 -6 24
-13 50 -16 58 -3 8 -5 16 -5 17 0 1 -18 37 -40 80 -21 43 -39 83 -39 90 0 7
-8 16 -17 22 -10 5 -17 12 -15 15 3 8 -20 89 -28 96 -7 7 -32 72 -33 88 0 6
-4 12 -9 12 -5 0 -6 5 -3 10 3 6 1 10 -5 10 -6 0 -15 12 -21 28 -5 15 -12 34
-16 42 -3 8 -7 22 -8 31 -1 10 -9 25 -18 34 -10 9 -15 21 -12 26 4 5 1 9 -4 9
-6 0 -11 5 -11 12 0 6 -8 20 -17 31 -10 11 -12 17 -5 13 12 -7 12 -4 1 15 -7
13 -12 28 -11 33 2 5 -7 19 -19 32 -11 12 -18 27 -15 32 3 5 -1 15 -9 22 -8 6
-19 28 -26 48 -6 20 -18 47 -26 60 -7 12 -11 28 -7 34 4 7 3 8 -4 4 -8 -5 -12
0 -12 14 0 22 -19 60 -35 72 -7 5 -7 8 0 8 6 0 3 5 -5 10 -9 6 -11 10 -3 10 7
0 10 7 7 15 -5 13 -9 13 -22 3 -13 -11 -14 -10 -4 8 9 17 9 24 -3 34 -8 7 -13
16 -10 20 3 4 -7 24 -20 45 -14 20 -21 34 -15 30 5 -3 10 -2 10 3 0 6 -8 13
-17 16 -13 5 -14 9 -5 15 10 6 10 14 1 37 -7 16 -11 35 -10 43 1 7 -2 10 -8 7
-5 -4 -10 2 -10 11 1 29 -6 50 -20 67 -7 9 -11 23 -7 31 4 11 2 14 -6 9 -7 -5
-9 0 -6 14 4 12 2 22 -2 22 -9 0 -19 42 -23 88 -1 15 -6 21 -15 17 -11 -4 -13
1 -10 19 9 44 -21 40 -79 -11 -30 -27 -71 -61 -92 -78 -20 -16 -78 -66 -127
-110 -50 -44 -103 -91 -120 -104 -16 -13 -52 -45 -80 -70 -28 -25 -93 -82
-144 -126 -51 -44 -125 -109 -164 -145 -39 -36 -91 -81 -116 -100 -25 -19 -61
-51 -80 -71 -19 -19 -51 -47 -70 -61 -19 -14 -53 -43 -75 -65 -22 -21 -53 -49
-70 -61 -16 -13 -58 -49 -92 -80 -34 -31 -96 -86 -138 -122 -43 -36 -105 -90
-139 -121 -33 -31 -80 -72 -103 -90 -74 -60 -165 -139 -267 -233 -54 -50 -105
-95 -112 -99 -8 -4 -46 -40 -85 -80 -70 -71 -149 -190 -183 -277 -10 -25 -23
-52 -30 -60 -7 -8 -25 -47 -40 -85 l-26 -70 0 -1615 0 -1615 33 -65 c58 -113
144 -258 211 -355 37 -52 66 -97 66 -100 0 -3 22 -33 50 -68 27 -34 89 -111
136 -172 98 -124 135 -167 242 -278 l75 -77 1088 0 1089 0 0 123 0 123 158 23
c86 13 207 29 267 37 118 14 300 40 337 48 13 3 46 8 73 11 28 3 95 12 150 21
55 8 111 17 125 19 14 2 95 14 180 28 85 14 169 28 185 30 243 39 462 98 448
120 -3 7 -17 29 -30 49 -19 32 -20 36 -5 31 9 -3 22 -12 28 -20 19 -23 354
-63 522 -63 50 0 92 -4 92 -9 0 -5 -11 -37 -24 -72 -49 -131 -61 -104 145
-314 l182 -185 209 0 209 0 -23 32 c-12 18 -52 65 -88 104 -36 39 -112 124
-170 190 -58 65 -120 132 -139 149 -19 16 -57 54 -85 84 -81 86 -162 144 -189
135 -41 -13 -153 -5 -270 21 -64 14 -130 25 -146 25 -16 0 -42 7 -57 15 -16 8
-37 15 -48 15 -33 0 -230 50 -266 67 -19 9 -45 26 -57 36 -16 14 -29 18 -50
12 -42 -10 -53 -13 -118 -25 -33 -7 -69 -15 -80 -20 -11 -4 -58 -13 -105 -20
-47 -6 -101 -16 -120 -21 -19 -5 -91 -16 -160 -24 -69 -8 -224 -26 -345 -40
-289 -34 -474 -52 -617 -60 l-118 -7 0 175 0 174 103 7 c56 4 140 11 187 16
47 5 117 12 155 16 61 5 160 17 245 28 14 1 36 6 50 9 14 4 43 9 65 11 77 8
380 56 420 67 22 5 66 14 99 18 51 7 61 6 81 -13 49 -45 148 -99 262 -143 65
-25 123 -49 130 -55 12 -9 36 -17 241 -73 51 -14 134 -39 185 -56 71 -23 124
-32 234 -41 166 -13 185 -8 241 59 l36 45 19 -23 c21 -28 277 -296 387 -408
41 -42 116 -123 165 -180 50 -57 130 -148 180 -202 l90 -99 198 0 198 0 -37
48 c-21 26 -68 79 -104 118 -36 39 -105 117 -155 175 -93 107 -144 164 -331
365 -61 65 -132 144 -159 174 -26 30 -59 66 -74 80 -15 14 -40 43 -56 65 -16
22 -49 62 -72 89 -24 26 -43 54 -43 61 0 8 16 34 36 60 19 26 34 50 32 54 -4
11 -159 135 -187 150 -13 7 -42 30 -65 51 -23 20 -83 69 -135 108 -51 39 -116
91 -145 116 -144 126 -197 172 -266 228 -41 33 -93 79 -115 101 -22 22 -62 57
-90 77 -27 21 -59 47 -70 60 -11 12 -49 45 -85 73 -36 27 -83 69 -106 91 -22
23 -58 55 -80 73 -21 17 -55 44 -74 59 -19 16 -38 34 -43 40 -4 7 -40 37 -80
67 -39 30 -85 69 -102 87 -16 18 -55 50 -85 73 -30 22 -66 52 -80 66 -14 14
-41 38 -60 54 -19 15 -50 40 -69 55 -19 15 -46 38 -60 52 -14 14 -43 38 -64
54 -36 26 -80 65 -282 250 -198 181 -258 237 -374 349 l-123 119 5 110 c3 60
8 112 11 115 4 5 43 -30 211 -187 89 -83 229 -212 300 -276 50 -45 136 -124
193 -175 57 -52 123 -110 147 -129 80 -65 230 -192 275 -233 54 -50 176 -152
264 -222 34 -27 74 -61 87 -74 13 -13 59 -50 101 -81 84 -63 210 -167 297
-245 31 -28 86 -72 124 -99 37 -26 67 -52 67 -57 0 -4 10 -13 21 -20 17 -9 23
-8 30 2 6 11 30 -8 92 -71 80 -81 256 -229 325 -272 17 -11 32 -23 32 -28 0
-4 19 -20 43 -35 23 -15 80 -58 127 -95 96 -76 222 -145 245 -136 18 7 -3 -26
-62 -100 -18 -23 -33 -45 -33 -51 0 -10 74 -112 88 -122 4 -4 30 -35 57 -71
45 -59 227 -269 257 -296 7 -7 45 -49 83 -95 39 -46 91 -105 118 -132 26 -26
65 -72 86 -100 21 -29 66 -81 100 -116 34 -36 61 -69 61 -73 0 -5 26 -37 58
-72 134 -150 132 -146 132 -230 l0 -76 1295 0 c712 0 1295 2 1295 5 0 18 -84
129 -135 179 -35 34 -80 82 -101 108 -22 25 -100 113 -174 194 -130 142 -228
251 -423 473 -51 57 -119 134 -152 171 -101 112 -279 312 -305 344 -40 47
-127 145 -206 232 -41 45 -87 99 -103 120 -16 21 -45 55 -66 74 -20 19 -51 55
-68 80 -17 25 -39 51 -48 57 -9 7 -48 50 -85 95 -37 46 -89 106 -115 133 -26
28 -65 73 -87 100 -22 28 -59 68 -82 90 -23 22 -50 52 -59 67 -16 24 -64 84
-135 163 l-26 30 -18 -23 c-33 -44 -135 -152 -144 -152 -4 0 -8 17 -8 38 0 48
-40 134 -88 188 -20 23 -58 75 -85 115 -73 114 -78 122 -114 159 -18 20 -52
67 -75 105 -78 128 -378 511 -544 695 -22 25 -54 65 -71 90 -17 25 -43 56 -58
70 -15 14 -48 52 -73 85 -48 63 -141 172 -205 239 -66 70 -250 266 -285 305
-19 20 -38 48 -44 63 -5 16 -14 26 -19 23 -8 -6 -169 153 -231 228 -17 20 -34
37 -39 37 -4 0 -48 39 -98 88 -89 86 -164 149 -251 209 -25 18 -72 57 -105 88
l-60 56 45 -28 c25 -15 56 -36 70 -48 14 -12 34 -28 44 -36 18 -13 19 -13 7 8
-10 19 -9 22 4 17 8 -4 18 -17 21 -30 6 -25 98 -114 117 -114 10 0 -15 34 -43
57 -13 11 -12 12 6 13 12 0 53 -32 103 -80 45 -44 101 -89 124 -101 23 -11 78
-42 122 -70 44 -28 109 -66 145 -85 36 -19 110 -64 165 -99 55 -35 118 -74
140 -86 22 -12 65 -41 96 -65 31 -24 70 -49 85 -56 16 -7 50 -27 75 -45 26
-18 50 -33 54 -33 4 0 28 -15 54 -33 25 -19 71 -47 101 -63 30 -16 71 -41 90
-55 19 -15 80 -53 135 -84 55 -31 125 -74 157 -96 31 -21 59 -39 63 -39 11 0
119 -72 166 -111 26 -22 50 -39 53 -39 3 0 7 181 7 403 1 221 5 416 9 432 l7
30 12 -30 c37 -93 43 -117 38 -150 -3 -20 -2 -33 3 -30 5 3 5 -7 0 -24 -4 -16
-6 -32 -3 -34 2 -3 6 -21 9 -41 2 -20 6 -52 8 -73 3 -20 11 -40 18 -44 7 -5
10 -9 6 -9 -4 0 0 -9 9 -19 9 -11 19 -18 22 -16 3 1 6 -10 7 -26 1 -16 11 -40
23 -52 11 -13 21 -29 21 -35 0 -7 5 -12 10 -12 6 0 10 -8 10 -18 0 -10 6 -24
13 -31 6 -6 12 -15 13 -19 2 -20 17 -41 25 -36 5 3 6 -2 3 -10 -3 -9 -1 -16 4
-16 6 0 9 -9 7 -19 -2 -12 1 -18 8 -15 13 4 37 -39 37 -68 0 -10 4 -18 9 -18
5 0 12 -14 16 -30 4 -17 11 -30 16 -30 5 0 9 -7 9 -16 0 -9 14 -43 30 -76 17
-32 30 -65 30 -73 0 -8 5 -15 10 -15 6 0 9 -3 8 -7 -1 -5 8 -30 21 -58 34 -74
61 -156 55 -166 -3 -5 -1 -9 4 -9 10 0 25 -37 23 -54 -1 -4 2 -13 7 -20 8 -10
61 -186 66 -219 1 -6 4 -16 7 -22 4 -5 6 -63 5 -128 -1 -66 1 -123 4 -128 6
-8 82 53 205 165 33 30 76 67 95 82 19 15 62 53 96 83 87 80 218 190 276 233
28 20 71 56 97 81 25 24 53 48 62 53 9 5 45 34 80 66 90 79 205 177 264 224
47 37 69 56 132 112 15 12 49 41 77 65 28 23 80 69 116 102 64 58 147 129 294
248 70 57 361 331 420 396 17 19 47 50 68 70 91 91 330 503 368 636 8 29 10
430 8 1490 l-3 1450 -51 116 c-94 215 -339 622 -467 777 -23 28 -69 85 -101
126 -32 41 -72 87 -88 102 -15 15 -28 32 -28 38 0 5 -28 39 -62 76 -35 37 -79
84 -100 106 -20 21 -63 65 -96 97 l-59 57 -1026 0 -1027 0 0 -40 c0 -31 -4
-40 -17 -41 -194 -5 -551 -45 -728 -79 -164 -33 -336 -69 -395 -85 -30 -8 -91
-23 -135 -34 -44 -11 -127 -34 -185 -51 -58 -18 -109 -33 -115 -35 -5 -1 -17
-4 -25 -7 -8 -3 -67 -22 -130 -43 -63 -21 -119 -41 -125 -45 -5 -4 -32 -13
-60 -20 -71 -19 -374 -146 -407 -170 -15 -11 -31 -20 -36 -20 -5 0 -37 33 -73
73 -55 62 -66 70 -79 59 -8 -7 -31 -23 -50 -35 -37 -24 -123 -125 -142 -168
l-12 -26 -265 -7 c-146 -3 -312 -9 -369 -13 l-103 -6 6 84 c7 89 32 216 45
224 4 3 190 5 413 5 391 1 406 1 431 21 14 11 25 25 23 32 -1 6 32 30 73 53
41 23 122 73 179 110 87 56 229 131 466 245 l40 19 -455 0 -455 0 -55 -58
c-30 -32 -69 -68 -86 -80 l-31 -21 -65 44 c-121 84 -245 115 -361 91 -32 -7
-36 -6 -31 8 5 14 -9 16 -129 16 -75 0 -138 -4 -141 -9 -4 -5 -12 -40 -20 -78
-8 -37 -34 -153 -59 -258 -48 -199 -65 -276 -97 -439 -11 -54 -24 -117 -29
-140 -9 -40 -28 -130 -71 -331 -12 -55 -25 -116 -30 -135 -9 -36 -29 -137 -50
-250 -6 -36 -17 -75 -23 -87 -6 -13 -8 -26 -5 -29 3 -3 2 -21 -4 -41 -24 -87
-100 -431 -123 -558 -9 -49 -23 -120 -32 -157 -8 -36 -14 -71 -12 -77 3 -7 33
48 68 121 35 73 75 155 88 181 13 26 21 52 18 57 -6 10 44 256 75 370 12 41
34 125 50 185 16 61 36 130 45 155 9 25 36 113 60 195 24 83 51 170 60 195 9
25 22 65 29 90 48 167 134 400 148 400 20 0 1 -235 -21 -265 -4 -5 -16 -39
-25 -75 -10 -36 -22 -76 -26 -90 -5 -14 -14 -50 -21 -80 -12 -55 -84 -309
-121 -430 -12 -36 -30 -110 -40 -165 -11 -55 -24 -109 -29 -120 -4 -11 -13
-47 -20 -80 -11 -61 -29 -110 -77 -220 -3 -7 -1 -7 5 0 6 6 30 46 53 90 24 44
58 103 76 130 18 28 40 79 49 115 9 36 22 85 30 110 8 25 18 68 24 95 5 28 21
102 36 165 14 63 33 144 41 179 8 36 17 67 19 69 5 5 366 20 508 21 48 1 87
-3 87 -7 0 -5 -24 -37 -53 -72 -52 -63 -52 -63 -107 -65 -48 -1 -67 -8 -145
-55 -102 -62 -246 -199 -291 -276 -15 -27 -33 -56 -39 -64 -7 -8 -15 -23 -18
-33 -6 -15 -4 -16 16 -5 60 33 135 95 169 139 36 46 39 48 83 45 61 -3 120 18
185 68 30 23 73 54 95 68 22 15 73 50 114 78 82 58 124 75 197 84 27 3 75 12
106 20 32 7 58 11 58 8 0 -2 6 0 13 6 6 5 39 17 72 27 81 23 139 54 214 114
78 63 120 117 121 154 0 19 -12 43 -35 70 -19 22 -35 46 -35 52 0 7 -10 20
-22 31 -21 19 -21 19 -16 -3 7 -25 -30 -59 -107 -100 -22 -11 -58 -31 -80 -44
-98 -57 -166 -88 -245 -113 -94 -31 -130 -48 -176 -82 -17 -13 -34 -24 -37
-24 -3 0 21 53 54 118 l61 117 75 32 c42 18 83 38 92 46 9 7 41 29 71 47 30
19 83 51 117 72 71 43 116 49 133 18 6 -11 30 -30 53 -41 23 -12 56 -32 72
-44 17 -13 82 -49 145 -82 l115 -59 38 18 c54 27 381 110 472 122 12 1 25 5
31 9 6 3 33 9 60 12 27 4 74 12 104 20 30 7 62 13 70 13 25 0 241 31 248 36
13 7 259 40 467 61 77 8 167 19 200 24 33 5 99 10 148 10 l87 1 0 -198 0 -199
-177 -12 c-98 -7 -216 -15 -263 -17 -47 -2 -110 -9 -140 -14 -30 -5 -77 -12
-105 -15 -355 -36 -455 -46 -480 -50 -16 -3 -68 -10 -115 -15 -81 -9 -314 -44
-335 -51 -5 -2 -25 5 -44 15 -38 20 -40 22 -96 69 -79 67 -111 80 -182 78 -50
-2 -70 2 -84 15 -29 26 -23 12 21 -52 104 -153 87 -138 174 -146 43 -4 93 -12
110 -17 17 -6 53 -13 81 -17 37 -5 86 -29 193 -92 124 -74 155 -98 232 -179
82 -87 111 -106 124 -84 3 5 27 12 53 16 27 4 102 20 168 37 66 16 143 33 170
38 28 5 79 16 115 24 94 22 286 54 426 71 67 8 128 15 135 17 11 2 15 -28 17
-163 l2 -165 -82 -11 c-88 -12 -190 -38 -429 -108 -80 -24 -182 -49 -228 -55
l-83 -13 -55 57 c-30 31 -74 70 -97 85 -22 16 -63 53 -91 83 -28 30 -77 69
-110 86 -58 31 -175 75 -175 67 0 -13 -80 40 -111 72 -28 30 -57 45 -131 71
-93 31 -144 41 -134 24 3 -5 -6 -19 -21 -31 l-25 -23 -49 48 c-48 48 -64 50
-33 6 9 -13 14 -24 13 -26 -31 -23 -88 -47 -144 -61 -38 -9 -77 -18 -85 -20
-8 -3 -40 -11 -70 -20 -30 -9 -78 -23 -107 -31 -59 -16 -166 -71 -232 -118
-24 -17 -62 -44 -85 -59 -45 -30 -195 -107 -209 -107 -5 0 -21 -8 -35 -18 -32
-22 -126 -53 -232 -77 -41 -9 -91 -22 -110 -29 -19 -8 -55 -16 -80 -20 -57 -8
-126 -32 -123 -43 1 -5 -21 -10 -48 -11 -28 -1 -59 -7 -69 -12 -10 -6 -31 -11
-47 -11 l-28 -1 30 -8 c34 -8 36 -6 -75 -45 -41 -14 -88 -32 -105 -40 -16 -7
-43 -17 -60 -21 -18 -4 -54 -32 -88 -68 -32 -34 -62 -60 -68 -59 -5 2 -9 -4
-9 -12 0 -8 -21 -49 -47 -90 -27 -40 -66 -104 -88 -140 -22 -37 -51 -81 -65
-99 -14 -18 -36 -48 -50 -66 -14 -19 -34 -45 -46 -59 l-21 -25 3 30 c2 16 8
88 14 159 13 147 43 358 65 455 16 69 46 236 71 385 8 50 21 126 29 170 7 44
17 100 20 125 4 25 17 97 30 160 13 63 26 140 30 170 9 72 60 377 86 505 10
55 26 138 35 185 9 47 20 110 26 140 5 30 14 64 18 75 5 11 11 40 14 65 3 25
8 56 12 70 3 14 8 35 11 48 l5 22 -140 0 c-78 0 -143 -4 -146 -9 -3 -5 -15
-98 -26 -208 -11 -109 -27 -261 -36 -338 -8 -77 -17 -158 -19 -180 -26 -269
-36 -359 -67 -630 -5 -49 -10 -97 -10 -105 0 -16 -16 -145 -23 -195 -3 -16
-12 -111 -20 -210 -26 -307 -26 -288 -5 405 5 179 12 583 15 898 l6 572 -1296
0 c-1234 0 -1295 -1 -1286 -18z m5171 -1192 c14 -11 21 -20 15 -20 -5 0 -21 9
-35 20 -14 11 -20 20 -15 20 6 0 21 -9 35 -20z m-79 -259 c0 -3 2 -17 3 -30 4
-35 50 -67 131 -91 116 -35 148 -50 195 -94 27 -26 67 -50 97 -60 28 -9 73
-32 99 -51 27 -19 63 -38 81 -41 17 -3 43 -19 57 -35 23 -26 33 -29 85 -29 50
0 66 -5 107 -32 27 -19 57 -50 69 -73 11 -22 30 -53 40 -69 l19 -29 -42 5
c-49 7 -176 54 -214 80 -14 10 -31 18 -36 18 -6 0 -30 15 -54 33 -86 64 -216
118 -368 153 -93 22 -121 41 -140 97 -9 26 -19 44 -23 41 -4 -4 -11 5 -16 19
-11 27 -28 41 -51 42 -11 0 -14 9 -12 33 1 17 -2 32 -7 32 -12 0 -51 63 -51
83 0 10 6 14 15 11 8 -4 15 -9 16 -13z m54 -283 c25 -16 48 -47 77 -105 23
-45 40 -85 37 -88 -7 -6 -107 -23 -214 -35 -44 -5 -102 -14 -128 -20 -26 -5
-65 -10 -87 -10 -21 0 -41 -4 -45 -9 -3 -6 -13 -9 -23 -9 -28 1 -193 -22 -262
-37 -59 -13 -143 -28 -400 -70 -47 -8 -137 -23 -199 -34 -63 -11 -118 -18
-121 -16 -3 2 -24 0 -46 -5 -21 -5 -84 -14 -139 -20 -140 -15 -195 -27 -313
-66 -57 -20 -141 -44 -185 -54 -194 -45 -219 -54 -237 -91 -19 -36 -60 -79
-60 -62 0 6 13 27 30 48 16 21 40 57 52 81 12 24 27 44 34 44 6 0 38 13 70 29
56 27 108 44 234 78 92 24 151 40 240 66 104 29 222 60 315 82 195 47 235 57
300 74 107 30 287 76 415 106 63 15 120 31 125 36 6 4 35 12 65 18 30 5 98 19
150 30 52 12 133 28 180 37 47 8 87 17 89 20 7 6 9 5 46 -18z m295 -219 c64
-41 156 -80 203 -86 21 -3 37 -11 37 -18 0 -8 23 -14 73 -17 87 -6 121 -21
148 -64 15 -25 34 -37 82 -53 34 -11 81 -23 105 -26 l43 -7 -7 53 c-4 29 -13
64 -20 78 -20 38 -17 46 19 47 17 0 39 2 47 5 21 6 64 -85 55 -119 -3 -14 -20
-38 -36 -53 -29 -27 -29 -30 -23 -93 5 -48 4 -66 -5 -66 -7 0 -11 6 -10 13 1
6 1 23 0 37 -1 23 -4 25 -39 22 -28 -3 -42 1 -55 16 -15 16 -24 18 -55 11 -32
-7 -41 -5 -62 15 -39 37 -59 43 -159 51 -68 5 -98 12 -111 25 -12 12 -40 19
-100 23 -82 5 -84 6 -116 43 -28 34 -34 37 -48 25 -9 -8 -18 -12 -20 -10 -14
17 -86 148 -86 156 0 10 12 14 79 21 7 1 35 -12 61 -29z m1404 -91 c9 -58 15
-257 9 -293 -3 -19 -10 -35 -15 -35 -5 0 -6 5 -3 10 14 23 -13 7 -45 -26 -18
-20 -53 -44 -75 -54 -23 -10 -52 -30 -63 -45 -14 -18 -22 -22 -22 -13 0 9 -7
21 -15 28 -19 16 -19 8 1 -80 8 -38 22 -74 30 -81 17 -14 18 -2 4 36 -8 20 -7
26 2 23 23 -8 42 -116 31 -171 -7 -36 -7 -50 2 -53 14 -6 82 22 114 47 13 10
34 19 47 19 23 0 24 3 24 64 0 59 -2 64 -20 59 -18 -5 -20 0 -20 57 0 45 3 60
13 57 6 -2 20 0 29 5 13 6 16 5 12 -6 -3 -8 0 -17 7 -22 8 -4 10 -3 5 4 -4 7
-2 12 3 12 6 0 11 -5 11 -11 0 -5 4 -7 10 -4 6 4 7 -1 3 -11 -3 -10 -2 -15 3
-12 10 7 36 -17 28 -25 -3 -3 4 -8 15 -12 19 -6 25 -16 22 -37 -2 -15 62 -58
79 -53 15 5 17 2 12 -17 -5 -21 -4 -22 14 -8 10 8 16 10 12 6 -4 -5 -2 -16 5
-24 10 -13 9 -15 -5 -9 -15 5 -16 4 -5 -13 6 -11 15 -20 18 -20 4 0 10 -12 13
-26 5 -17 12 -24 21 -20 9 3 12 0 9 -8 -3 -8 4 -16 18 -20 22 -7 22 -7 3 -16
-19 -8 -18 -9 4 -9 21 -1 22 -3 10 -18 -12 -15 -12 -16 8 -11 17 4 20 2 16
-10 -5 -11 -2 -14 10 -9 13 5 15 2 8 -16 -9 -24 -4 -47 13 -60 7 -6 4 -7 -6
-3 -10 3 -18 1 -18 -4 0 -6 4 -10 8 -10 4 0 8 -9 8 -20 0 -11 -4 -20 -8 -20
-4 0 -8 -5 -8 -11 0 -5 4 -7 10 -4 6 3 7 -1 4 -9 -3 -9 -10 -16 -15 -16 -6 0
-4 -6 3 -14 7 -8 16 -12 20 -9 4 2 5 -2 2 -10 -3 -8 -13 -14 -22 -13 -10 0
-16 -5 -14 -14 2 -8 4 -22 5 -32 1 -9 5 -15 9 -12 4 3 5 11 1 19 -3 8 -3 15 0
15 14 0 14 -30 0 -50 l-15 -22 -50 49 c-28 26 -68 72 -89 101 -22 29 -57 63
-79 77 -21 13 -55 45 -74 71 -42 54 -47 48 -43 -51 l2 -70 -28 -3 c-35 -4
-103 46 -147 107 -16 22 -41 48 -55 57 -28 18 -33 42 -11 50 11 4 4 26 -32
102 -25 53 -63 121 -84 150 -22 29 -33 52 -26 52 13 0 23 13 59 77 17 30 19
45 12 106 -4 40 -12 72 -18 72 -5 0 -13 -26 -16 -58 -6 -57 -14 -76 -24 -65
-3 3 -1 27 6 52 6 26 9 49 7 52 -3 3 -30 -4 -59 -15 -39 -15 -68 -36 -107 -78
-52 -58 -52 -58 -46 -109 6 -55 -2 -71 -56 -99 -37 -19 -171 -36 -187 -23 -8
7 -23 1 -46 -16 -19 -14 -48 -31 -66 -37 -18 -6 -30 -13 -27 -16 2 -3 30 4 60
16 71 26 73 12 4 -22 -39 -19 -54 -23 -60 -14 -5 8 -8 6 -8 -6 0 -29 26 -30
80 -3 87 44 120 31 53 -21 -57 -44 -105 -69 -145 -77 -32 -6 -37 -4 -43 15 -8
23 0 35 30 42 19 4 19 5 -1 6 -48 2 -27 72 25 86 14 3 38 17 53 30 16 14 44
32 63 41 19 9 54 34 79 55 24 21 47 39 50 39 4 0 29 18 57 40 28 22 55 40 60
40 5 0 41 30 79 67 l69 67 -35 38 c-18 21 -34 42 -34 47 0 5 49 18 109 29 118
22 157 38 266 106 39 25 75 45 82 45 7 1 14 -14 17 -31z m-508 -125 c3 -10 10
-26 15 -35 22 -41 2 -103 -48 -150 -16 -15 -36 -38 -46 -52 -10 -14 -22 -26
-27 -26 -11 0 -1 67 13 95 6 11 12 33 14 48 2 16 7 37 13 47 5 10 10 28 10 39
0 20 24 51 41 51 5 0 12 -8 15 -17z m-776 -159 c34 -8 59 -8 66 -3 14 11 221
1 246 -12 17 -9 20 -32 32 -202 3 -37 8 -71 11 -77 20 -32 -137 -71 -208 -52
-44 12 -46 4 -11 -38 15 -17 24 -33 22 -35 -9 -9 -48 42 -57 72 -9 31 -9 31
21 22 37 -10 160 0 170 15 4 6 8 26 8 45 0 41 -34 90 -85 121 -29 18 -41 20
-64 12 -20 -7 -32 -7 -40 1 -8 8 -11 8 -11 -1 0 -6 -7 -9 -16 -5 -8 3 -26 0
-39 -7 -19 -10 -37 -10 -88 0 -47 9 -88 9 -158 1 -52 -5 -173 -13 -269 -16
-96 -3 -231 -10 -300 -15 -69 -5 -228 -14 -355 -20 -126 -6 -252 -13 -280 -15
-66 -5 -342 -21 -705 -40 -413 -21 -636 -35 -699 -42 l-55 -6 24 39 c23 39 75
94 88 94 4 0 81 9 172 19 91 11 217 25 280 30 63 6 131 13 150 15 32 5 395 30
590 41 47 3 101 8 121 11 20 3 112 12 205 20 209 18 436 39 574 53 58 6 170
16 250 21 80 6 159 13 175 16 17 3 48 9 70 13 37 7 43 4 75 -28 26 -27 49 -39
90 -47z m516 -71 c3 -16 7 -33 9 -40 2 -6 -1 -27 -7 -47 -8 -26 -20 -39 -47
-51 -20 -9 -44 -20 -53 -26 -27 -14 -23 16 4 35 18 13 19 16 5 16 -23 0 -21
14 10 68 42 75 69 90 79 45z m477 -14 c-6 -23 -23 -36 -23 -17 0 30 13 59 20
48 4 -7 5 -21 3 -31z m306 -59 c1 -13 0 -13 -9 0 -5 8 -9 24 -9 35 l0 20 9
-20 c5 -11 9 -27 9 -35z m-214 -60 c3 -5 1 -10 -4 -10 -6 0 -11 5 -11 10 0 6
2 10 4 10 3 0 8 -4 11 -10z m-645 -54 c0 -2 -7 -7 -16 -10 -8 -3 -12 -2 -9 4
6 10 25 14 25 6z m500 -38 c12 -24 31 -61 43 -83 20 -39 21 -39 27 -15 6 25 6
24 33 -15 15 -22 27 -45 27 -51 0 -15 -207 -9 -226 7 -8 6 -14 20 -14 30 0 11
-7 19 -17 19 -9 0 -13 3 -10 7 4 3 2 12 -3 18 -8 9 -4 21 12 41 13 16 28 38
34 49 9 16 34 29 65 34 4 1 17 -18 29 -41z m523 1 c4 -16 3 -18 -9 -8 -7 6
-11 15 -8 20 8 13 11 11 17 -12z m-673 -1 c0 -6 -3 -8 -7 -5 -3 4 -11 0 -17
-9 -7 -9 -18 -13 -30 -8 -16 6 -15 9 10 20 37 16 44 16 44 2z m-1 -140 c-3
-26 2 -34 56 -93 30 -32 55 -63 55 -67 0 -5 21 -29 48 -53 39 -37 44 -47 32
-55 -12 -7 -8 -11 18 -16 25 -5 44 -20 70 -56 21 -27 48 -52 62 -55 14 -3 47
-26 75 -50 55 -47 66 -51 86 -26 12 14 15 9 22 -43 5 -32 8 -84 8 -114 -1 -62
-32 -192 -47 -197 -5 -2 -18 11 -29 29 -10 18 -62 84 -114 147 -119 141 -207
252 -248 311 -17 25 -59 77 -93 115 -33 39 -70 81 -81 94 l-20 24 40 38 c22
21 42 47 46 59 7 22 17 27 14 8z m-585 -29 c15 -12 26 -30 26 -44 0 -28 17
-42 33 -26 16 16 37 14 37 -4 0 -27 35 -15 51 18 21 42 85 56 139 30 33 -16
57 -18 110 -11 19 2 25 -1 25 -17 0 -13 -6 -19 -17 -17 -21 3 -58 -15 -58 -29
0 -16 63 -97 87 -110 12 -6 19 -17 17 -24 -3 -7 1 -19 8 -26 8 -8 25 -32 38
-54 13 -22 40 -60 60 -85 20 -25 76 -107 126 -183 49 -76 116 -179 150 -230
33 -51 71 -111 84 -134 13 -24 27 -43 30 -43 4 0 22 -21 40 -46 l33 -46 -7
-107 c-3 -58 -12 -126 -19 -150 l-14 -44 -31 56 c-18 31 -68 127 -113 214 -74
143 -110 209 -147 268 -7 11 -24 44 -38 74 -26 55 -45 83 -101 150 -60 71
-102 136 -158 245 -30 60 -55 111 -55 113 0 2 23 -15 50 -38 28 -23 53 -40 56
-36 3 3 -3 12 -15 19 -12 7 -21 18 -21 25 0 7 -13 28 -30 46 -34 39 -36 47
-15 47 8 0 15 5 15 10 0 6 -15 4 -37 -5 -60 -25 -205 -2 -234 39 -4 4 -15 4
-25 -2 -11 -5 -89 -12 -174 -15 -85 -4 -261 -12 -390 -19 -153 -8 -526 -12
-1075 -12 -945 0 -1123 8 -1499 63 -153 22 -166 31 -140 87 21 46 33 55 53 45
28 -14 380 -23 891 -22 272 1 522 3 555 5 33 3 193 7 355 11 362 7 591 14 775
24 77 4 231 9 341 9 190 2 203 1 228 -19z m486 -59 c0 -5 -4 -10 -10 -10 -5 0
-10 5 -10 10 0 6 5 10 10 10 6 0 10 -4 10 -10z m-2984 -4127 c88 -84 173 -163
190 -175 17 -13 56 -49 88 -80 31 -32 74 -70 94 -85 20 -16 61 -52 92 -81 30
-30 72 -65 93 -78 20 -13 37 -28 37 -34 0 -5 30 -33 67 -62 61 -49 95 -79 295
-261 41 -37 88 -78 105 -90 16 -12 65 -56 109 -99 43 -42 102 -94 129 -115 28
-22 66 -57 85 -77 19 -21 46 -44 60 -51 14 -7 50 -36 80 -65 30 -28 87 -75
125 -105 39 -30 102 -79 140 -110 39 -30 95 -72 125 -92 30 -21 75 -54 100
-74 25 -20 68 -49 95 -63 28 -15 75 -42 105 -61 30 -20 67 -39 83 -43 l27 -7
-35 -49 c-19 -27 -37 -51 -39 -53 -7 -7 -256 121 -367 188 -53 32 -105 62
-115 65 -11 4 -42 24 -69 44 -28 20 -65 45 -84 54 -50 27 -249 181 -354 277
-34 30 -78 68 -98 85 -20 16 -87 76 -150 133 -63 57 -132 120 -154 140 -22 20
-87 79 -144 131 -58 52 -118 106 -134 120 -17 14 -60 54 -96 88 -36 35 -84 76
-106 92 -22 15 -56 45 -75 66 -19 22 -51 52 -70 67 -19 16 -73 65 -121 110
-47 45 -161 154 -253 242 -92 88 -180 173 -194 190 -15 16 -46 50 -69 76 -48
52 -53 79 -31 196 l12 63 131 -132 c73 -73 204 -202 291 -285z m-404 -129
c194 -200 642 -646 823 -819 103 -99 217 -209 254 -245 83 -82 274 -258 321
-296 19 -16 60 -51 91 -80 56 -50 215 -160 294 -202 47 -25 318 -132 335 -132
7 0 44 -9 83 -21 40 -11 97 -27 127 -35 30 -9 64 -20 75 -25 11 -5 69 -20 129
-32 95 -20 106 -25 91 -37 -14 -12 -27 -12 -83 -1 -125 24 -177 29 -277 29
-83 0 -93 -2 -60 -9 22 -5 85 -14 140 -19 143 -15 236 -27 243 -34 3 -4 1 -11
-5 -17 -18 -18 -366 30 -438 62 -11 4 -67 24 -125 43 -105 34 -298 105 -355
131 -16 7 -70 32 -119 54 -49 23 -96 41 -104 41 -24 0 -133 32 -128 37 3 3 20
0 38 -5 93 -28 95 -27 37 24 -30 26 -94 88 -144 136 -99 97 -414 392 -570 533
-54 50 -131 122 -170 160 -38 39 -90 89 -115 112 -56 52 -168 172 -280 299
-47 53 -120 133 -162 179 -85 88 -86 93 -67 187 12 63 17 78 23 78 3 0 47 -43
98 -96z m-235 -201 c7 -6 13 -15 13 -20 1 -4 16 -19 34 -33 18 -14 62 -59 97
-100 35 -41 67 -76 72 -78 14 -7 7 -21 -14 -27 -12 -4 -42 -20 -67 -36 -25
-16 -50 -29 -54 -29 -4 0 -8 29 -8 65 0 45 -4 65 -12 65 -10 0 -9 3 1 9 16 10
6 31 -15 31 -8 0 -14 5 -14 11 0 5 5 7 12 3 7 -4 8 -3 4 5 -4 6 -12 9 -17 6
-5 -4 -9 -1 -9 4 0 6 -3 10 -7 10 -21 -3 -32 2 -27 15 3 8 0 17 -5 21 -6 3 -9
11 -6 16 4 5 0 9 -7 9 -9 0 -9 3 2 10 13 8 12 10 -3 10 -10 0 -16 3 -14 8 5 7
-17 33 -24 29 -2 -1 3 5 11 14 15 17 23 14 57 -18z m482 -516 c39 -43 71 -83
71 -88 0 -5 -11 -14 -25 -19 -42 -16 -228 -109 -265 -132 -19 -12 -61 -34 -92
-49 -35 -17 -62 -38 -72 -56 -14 -27 -15 -23 -18 85 -5 218 -6 205 22 213 14
4 77 35 140 71 103 57 115 66 112 88 l-4 25 30 -30 c16 -16 61 -65 101 -108z
m403 -359 c97 -108 217 -228 272 -273 28 -22 59 -49 70 -60 40 -39 113 -95
124 -95 6 0 24 -12 41 -26 17 -14 53 -33 81 -43 71 -25 70 -30 -7 -23 l-67 5
17 -26 c21 -33 18 -33 -41 -2 -74 39 -122 87 -115 114 8 29 -12 42 -53 35 -26
-5 -35 0 -62 31 -18 19 -32 40 -32 45 0 16 -43 22 -85 11 -22 -5 -76 -19 -120
-31 -117 -31 -187 -48 -215 -53 -14 -3 -72 -16 -130 -30 -87 -21 -245 -55
-335 -73 -64 -12 -130 -24 -137 -24 -4 0 -8 58 -8 128 l0 128 78 23 c82 23
111 34 207 74 33 14 96 37 140 51 44 15 87 30 95 33 25 10 143 53 177 65 30
10 32 13 27 50 -3 21 -2 38 3 38 5 0 39 -33 75 -72z m2983 -707 c39 -11 82
-24 98 -30 15 -6 27 -8 27 -5 0 4 6 2 13 -4 25 -21 148 -82 166 -82 16 0 18
-15 24 -187 4 -103 3 -191 -2 -196 -5 -5 -26 13 -47 40 -21 26 -43 53 -49 58
-6 6 -68 80 -138 165 -69 85 -141 172 -159 193 -49 58 -53 67 -26 67 13 0 55
-9 93 -19z"/>
<path d="M6820 7486 c0 -2 8 -10 18 -17 15 -13 16 -12 3 4 -13 16 -21 21 -21
13z"/>
<path d="M7476 6853 c-6 -14 -5 -15 5 -6 7 7 10 15 7 18 -3 3 -9 -2 -12 -12z"/>
<path d="M6675 7339 c-4 -6 -5 -12 -2 -15 2 -3 7 2 10 11 7 17 1 20 -8 4z"/>
<path d="M2900 2650 c0 -5 5 -10 11 -10 5 0 7 5 4 10 -3 6 -8 10 -11 10 -2 0
-4 -4 -4 -10z"/>
<path d="M4560 9560 c0 -5 5 -10 10 -10 6 0 10 5 10 10 0 6 -4 10 -10 10 -5 0
-10 -4 -10 -10z"/>
<path d="M4976 9003 c-23 -64 -103 -160 -165 -198 -32 -19 -61 -35 -65 -35 -3
0 -38 -16 -78 -36 -40 -19 -107 -46 -148 -60 -41 -13 -81 -26 -88 -29 -7 -2
-14 -5 -17 -5 -29 -3 -176 -77 -199 -99 -29 -28 -105 -69 -258 -140 -68 -32
-105 -44 -218 -77 -61 -17 -102 -42 -192 -114 -20 -17 -41 -30 -45 -30 -17 0
-61 -55 -83 -102 -12 -26 -28 -52 -36 -59 -22 -18 -16 -30 12 -23 15 4 83 36
153 71 69 35 169 77 222 93 55 17 103 38 110 49 19 25 300 111 365 111 13 0
32 4 42 9 9 5 35 14 57 20 54 15 228 141 312 227 111 113 317 222 451 240 28
4 52 8 52 10 0 3 -18 30 -39 62 -33 48 -119 132 -134 132 -3 0 -8 -8 -11 -17z"/>
<path d="M2890 6963 c0 -5 15 -17 33 -26 74 -39 129 -92 189 -182 15 -22 105
-119 199 -215 94 -96 183 -191 198 -210 14 -19 34 -41 44 -48 9 -7 25 -28 35
-47 9 -18 58 -77 108 -131 81 -88 153 -169 241 -273 15 -18 60 -67 99 -110 97
-103 210 -231 264 -299 25 -31 61 -72 80 -92 19 -19 53 -58 75 -85 37 -46 171
-206 264 -315 65 -76 140 -167 290 -349 79 -97 146 -178 150 -181 4 -3 47 -54
96 -115 49 -60 104 -126 121 -145 18 -19 51 -60 75 -90 23 -30 48 -58 55 -63
7 -4 35 -38 62 -75 27 -38 72 -92 98 -121 27 -29 59 -69 71 -88 12 -20 25 -39
30 -42 13 -10 87 -102 120 -151 17 -25 51 -68 75 -95 24 -28 61 -75 81 -105
21 -30 59 -83 85 -117 97 -126 158 -210 266 -368 26 -38 58 -81 71 -95 32 -35
202 -298 264 -406 28 -49 51 -100 51 -113 0 -19 11 -12 71 46 38 37 81 87 95
110 24 40 24 43 10 72 -9 16 -38 56 -64 88 -26 32 -77 101 -112 153 -35 52
-69 100 -75 105 -7 6 -37 45 -66 89 -30 43 -65 93 -79 112 -14 18 -51 68 -83
111 -31 43 -70 95 -85 115 -15 20 -42 61 -60 91 -18 30 -44 65 -59 78 -14 13
-36 40 -49 59 -26 38 -35 49 -194 249 -58 73 -120 151 -138 174 -18 23 -56 66
-85 96 -29 29 -57 62 -63 73 -6 11 -42 52 -80 91 -39 40 -81 88 -94 107 -14
19 -43 53 -65 76 -57 57 -171 186 -230 259 -66 82 -171 201 -216 245 -20 19
-62 68 -94 108 -31 39 -61 72 -65 72 -4 0 -18 16 -32 35 -13 19 -44 56 -69 82
-24 27 -87 97 -139 158 -52 60 -117 132 -143 160 -26 27 -62 70 -80 94 -18 24
-47 60 -66 80 -19 20 -48 54 -65 76 -17 22 -92 101 -166 176 -216 218 -350
359 -350 368 0 19 39 18 61 -3 118 -106 154 -122 369 -161 88 -16 265 -61 455
-115 132 -38 216 -62 230 -66 6 -1 46 -12 90 -24 125 -34 326 -78 475 -104 41
-7 82 -16 90 -20 25 -11 184 -34 198 -29 7 3 18 0 26 -6 7 -6 21 -9 29 -5 9 3
31 1 49 -5 18 -5 83 -15 143 -21 61 -5 121 -12 135 -15 14 -3 104 -12 200 -20
96 -9 189 -18 205 -21 17 -3 54 -7 83 -9 28 -1 77 -6 108 -10 l56 -7 -7 34
c-6 34 -31 124 -45 168 -5 14 -18 57 -29 95 -12 39 -25 76 -30 83 -6 10 -89
15 -347 22 -339 9 -374 11 -664 30 -221 15 -476 39 -630 60 -41 5 -95 12 -120
15 -25 3 -90 12 -145 20 -55 8 -152 21 -215 30 -63 9 -119 20 -125 24 -5 5
-35 11 -65 15 -30 4 -86 14 -125 22 -38 8 -97 17 -130 20 -33 3 -78 9 -100 14
-22 5 -61 10 -86 10 -25 0 -66 3 -91 6 -41 6 -48 11 -76 58 -45 72 -65 94 -93
98 -17 2 -25 10 -27 28 -2 14 -11 33 -20 44 -10 11 3 6 32 -12 27 -17 70 -38
96 -47 43 -14 184 -42 257 -50 18 -2 66 -11 107 -20 42 -8 90 -15 108 -15 18
0 60 -7 93 -14 33 -8 98 -18 145 -21 47 -4 90 -10 95 -15 6 -4 46 -10 90 -14
44 -3 206 -16 360 -28 250 -20 349 -22 917 -23 350 0 639 3 643 7 3 3 2 14 -4
25 -6 10 -24 51 -40 91 -17 40 -51 104 -75 142 l-46 70 -232 -7 c-289 -10
-1308 -10 -1518 -1 -245 10 -743 49 -765 59 -11 5 -71 11 -133 14 -66 2 -126
10 -145 19 -17 8 -58 17 -90 20 -32 4 -72 13 -87 21 -16 8 -39 15 -52 15 -30
0 -83 34 -148 93 -29 26 -58 46 -65 43 -7 -2 -15 3 -17 12 -3 10 -51 40 -109
69 -111 56 -149 70 -149 56z m660 -419 c0 -7 -7 -14 -15 -18 -18 -6 -31 16
-40 69 l-7 40 31 -40 c17 -22 31 -45 31 -51z m160 -284 c23 -27 37 -50 32 -50
-5 0 -13 8 -16 17 -6 15 -10 13 -25 -10 -14 -22 -20 -25 -28 -15 -14 17 -31
80 -26 96 8 21 20 14 63 -38z"/>
<path d="M2990 6535 c0 -6 11 -46 25 -90 46 -143 108 -419 130 -575 7 -53 22
-95 46 -130 9 -14 36 -54 59 -89 24 -36 47 -70 52 -75 5 -6 37 -51 71 -99 34
-49 80 -114 102 -145 59 -83 284 -383 309 -412 11 -14 27 -36 35 -50 8 -14 37
-54 65 -90 29 -36 60 -78 70 -95 11 -16 58 -81 105 -143 47 -62 109 -144 136
-182 28 -37 66 -90 85 -116 19 -25 90 -121 157 -213 162 -219 177 -240 251
-332 34 -43 62 -82 62 -86 0 -5 18 -31 40 -58 22 -28 69 -86 105 -130 74 -92
138 -176 210 -274 28 -38 68 -92 90 -120 79 -100 121 -155 180 -236 33 -44 85
-112 115 -149 30 -38 76 -97 101 -132 25 -36 53 -70 61 -77 8 -6 30 -34 49
-62 19 -27 64 -89 102 -137 37 -48 67 -90 67 -94 0 -3 35 -52 78 -108 113
-148 119 -157 154 -206 17 -25 37 -48 44 -53 7 -4 34 -39 59 -77 26 -39 48
-70 51 -70 2 0 20 18 40 40 20 22 43 40 51 40 8 0 12 4 9 9 -3 5 10 26 29 47
19 21 35 42 35 47 0 8 -45 73 -195 282 -59 83 -87 120 -223 303 -26 35 -69 94
-97 131 -27 38 -66 89 -85 113 -19 25 -72 95 -118 157 -46 61 -87 111 -91 111
-4 0 -18 19 -31 43 -13 23 -46 69 -74 101 -28 33 -64 79 -81 103 -29 42 -184
247 -294 390 -31 39 -65 85 -76 102 -11 16 -67 91 -125 166 -58 75 -130 173
-161 217 -31 44 -70 94 -87 111 -16 18 -42 51 -56 75 -15 23 -33 50 -41 60
-26 30 -188 249 -245 329 -65 94 -186 260 -237 328 -21 27 -65 88 -97 135 -32
47 -82 114 -111 150 -29 36 -75 99 -104 140 -28 41 -79 113 -113 160 -98 135
-152 214 -268 390 -60 91 -126 188 -145 215 -71 99 -105 151 -139 210 -20 33
-47 72 -61 87 -14 15 -25 29 -25 32 0 2 -11 24 -25 47 -14 24 -25 39 -25 34z"/>
<path d="M5482 4814 c9 -10 21 -32 27 -47 14 -37 90 -131 121 -150 14 -9 59
-48 100 -87 41 -40 94 -85 118 -102 23 -16 42 -33 42 -38 0 -4 24 -25 53 -46
28 -21 88 -67 132 -103 44 -36 116 -88 160 -117 44 -29 89 -62 100 -75 11 -12
45 -38 75 -57 30 -19 78 -54 105 -77 28 -23 57 -46 67 -51 18 -10 168 -131
262 -211 63 -55 74 -55 71 2 -1 17 -3 60 -3 98 -2 57 -5 67 -20 67 -26 0 -106
56 -561 386 -53 39 -101 73 -107 75 -19 8 -267 180 -380 264 -37 28 -124 95
-193 150 -69 55 -140 109 -156 119 -30 19 -30 19 -13 0z"/>
<path d="M6021 4173 c10 -28 228 -281 368 -428 354 -368 369 -385 476 -535 14
-20 29 -57 34 -84 5 -27 18 -58 30 -69 l21 -21 0 23 c0 13 7 29 16 36 15 11
15 19 -5 104 -11 51 -21 105 -21 121 0 60 -12 88 -41 100 -16 7 -48 33 -71 59
-24 25 -74 73 -113 106 -38 33 -74 65 -80 71 -5 6 -39 35 -75 64 -36 29 -69
59 -75 66 -5 6 -37 33 -70 60 -33 26 -83 69 -112 96 -28 26 -58 48 -65 48 -8
0 -30 16 -49 36 -54 56 -173 160 -168 147z"/>
<path d="M4980 476 c0 -11 93 -101 128 -124 16 -11 59 -15 157 -18 75 -1 144
-6 155 -9 19 -6 20 -1 20 77 l0 83 -230 0 c-138 0 -230 -4 -230 -9z"/>
<path d="M5155 233 c-11 -3 -42 -13 -70 -22 -146 -53 -553 -136 -920 -188
l-130 -18 714 -3 c393 -1 716 -1 718 1 2 2 0 19 -3 37 -5 24 -17 39 -48 57
-253 150 -235 141 -261 136z"/>
</g>
</svg>
